<svg xmlns="http://www.w3.org/2000/svg" viewBox="0 0 500 500"><g id="freepik--background-complete--inject-44"><rect x="416.78" y="398.49" width="33.12" height="0.25" style="fill:#ebebeb"></rect><rect x="322.53" y="401.21" width="8.69" height="0.25" style="fill:#ebebeb"></rect><rect x="396.59" y="389.21" width="19.19" height="0.25" style="fill:#ebebeb"></rect><rect x="52.46" y="390.89" width="43.19" height="0.25" style="fill:#ebebeb"></rect><rect x="104.56" y="390.89" width="6.33" height="0.25" style="fill:#ebebeb"></rect><rect x="131.47" y="395.11" width="93.68" height="0.25" style="fill:#ebebeb"></rect><path d="M238.4,337.8H45.3a5.71,5.71,0,0,1-5.71-5.71V60.66A5.71,5.71,0,0,1,45.3,55H238.4a5.71,5.71,0,0,1,5.71,5.71V332.09A5.71,5.71,0,0,1,238.4,337.8ZM45.3,55.2a5.47,5.47,0,0,0-5.46,5.46V332.09a5.47,5.47,0,0,0,5.46,5.46H238.4a5.47,5.47,0,0,0,5.46-5.46V60.66a5.47,5.47,0,0,0-5.46-5.46Z" style="fill:#ebebeb"></path><path d="M454.7,337.8H261.6a5.71,5.71,0,0,1-5.71-5.71V60.66A5.71,5.71,0,0,1,261.6,55H454.7a5.71,5.71,0,0,1,5.71,5.71V332.09A5.71,5.71,0,0,1,454.7,337.8ZM261.6,55.2a5.47,5.47,0,0,0-5.46,5.46V332.09a5.47,5.47,0,0,0,5.46,5.46H454.7a5.47,5.47,0,0,0,5.46-5.46V60.66a5.47,5.47,0,0,0-5.46-5.46Z" style="fill:#ebebeb"></path><rect y="382.4" width="500" height="0.25" style="fill:#ebebeb"></rect><polygon points="418.92 204.99 347.23 204.99 339 110.86 410.69 110.86 418.92 204.99" style="fill:#f5f5f5"></polygon><path d="M393.05,123H356.92a.93.93,0,0,1-.92-.84h0a.77.77,0,0,1,.77-.85H392.9a.94.94,0,0,1,.92.85h0A.75.75,0,0,1,393.05,123Z" style="fill:#e0e0e0"></path><path d="M405.19,169.05H361a.94.94,0,0,1-.92-.85h0a.77.77,0,0,1,.77-.85h44.25a1,1,0,0,1,.92.85h0A.77.77,0,0,1,405.19,169.05Z" style="fill:#e0e0e0"></path><path d="M405.62,174H355.1a.94.94,0,0,1-.92-.85h0a.77.77,0,0,1,.77-.85h50.53a1,1,0,0,1,.92.85h0A.77.77,0,0,1,405.62,174Z" style="fill:#e0e0e0"></path><path d="M406.06,178.89H355.53a.94.94,0,0,1-.92-.85h0a.77.77,0,0,1,.77-.85h50.53a1,1,0,0,1,.92.85h0A.77.77,0,0,1,406.06,178.89Z" style="fill:#e0e0e0"></path><path d="M406.49,183.81H356A1,1,0,0,1,355,183h0a.77.77,0,0,1,.77-.85h50.53a.94.94,0,0,1,.92.85h0A.77.77,0,0,1,406.49,183.81Z" style="fill:#e0e0e0"></path><path d="M406.92,188.73H362.67a1,1,0,0,1-.92-.85h0a.77.77,0,0,1,.77-.85h44.25a.94.94,0,0,1,.92.85h0A.77.77,0,0,1,406.92,188.73Z" style="fill:#e0e0e0"></path><path d="M407.35,193.65H356.82a1,1,0,0,1-.92-.85h0a.76.76,0,0,1,.78-.84H407.2a.93.93,0,0,1,.92.84h0A.77.77,0,0,1,407.35,193.65Z" style="fill:#e0e0e0"></path><path d="M407.78,198.57H357.25a1,1,0,0,1-.92-.85h0a.76.76,0,0,1,.78-.84h50.52a.93.93,0,0,1,.92.84h0A.77.77,0,0,1,407.78,198.57Z" style="fill:#e0e0e0"></path><path d="M389.31,128.62H361.65a.94.94,0,0,1-.92-.85h0a.76.76,0,0,1,.77-.85h27.66a.94.94,0,0,1,.92.85h0A.76.76,0,0,1,389.31,128.62Z" style="fill:#e0e0e0"></path><path d="M385.28,134.24H366.66a.94.94,0,0,1-.92-.85h0a.75.75,0,0,1,.77-.84h18.63a.94.94,0,0,1,.92.84h0A.77.77,0,0,1,385.28,134.24Z" style="fill:#e0e0e0"></path><polygon points="405.32 160.82 353.1 160.82 351.35 140.78 403.57 140.78 405.32 160.82" style="fill:#e0e0e0;opacity:0.5"></polygon><polygon points="68.73 274.25 127.97 274.25 134.77 196.47 75.53 196.47 68.73 274.25" style="fill:#f5f5f5"></polygon><path d="M90.11,206.5H120a.79.79,0,0,0,.76-.7h0a.63.63,0,0,0-.64-.7H90.23a.77.77,0,0,0-.76.7h0A.63.63,0,0,0,90.11,206.5Z" style="fill:#e0e0e0"></path><path d="M80.07,244.55h36.56a.77.77,0,0,0,.76-.7h0a.63.63,0,0,0-.64-.7H80.2a.79.79,0,0,0-.77.7h0A.64.64,0,0,0,80.07,244.55Z" style="fill:#e0e0e0"></path><path d="M79.72,248.61h41.74a.77.77,0,0,0,.76-.7h0a.63.63,0,0,0-.64-.7H79.84a.78.78,0,0,0-.76.7h0A.63.63,0,0,0,79.72,248.61Z" style="fill:#e0e0e0"></path><path d="M79.36,252.68h41.75a.78.78,0,0,0,.76-.7h0a.63.63,0,0,0-.64-.7H79.48a.78.78,0,0,0-.76.7h0A.63.63,0,0,0,79.36,252.68Z" style="fill:#e0e0e0"></path><path d="M79,256.74h41.74a.77.77,0,0,0,.76-.7h0a.63.63,0,0,0-.64-.7H79.13a.78.78,0,0,0-.76.7h0A.63.63,0,0,0,79,256.74Z" style="fill:#e0e0e0"></path><path d="M78.65,260.81h36.56a.78.78,0,0,0,.76-.7h0a.63.63,0,0,0-.64-.7H78.77a.78.78,0,0,0-.76.7h0A.63.63,0,0,0,78.65,260.81Z" style="fill:#e0e0e0"></path><path d="M78.29,264.88H120a.78.78,0,0,0,.76-.7h0a.63.63,0,0,0-.64-.7H78.42a.77.77,0,0,0-.76.7h0A.63.63,0,0,0,78.29,264.88Z" style="fill:#e0e0e0"></path><path d="M77.94,268.94h41.74a.77.77,0,0,0,.76-.7h0a.62.62,0,0,0-.63-.7H78.06a.77.77,0,0,0-.76.7h0A.63.63,0,0,0,77.94,268.94Z" style="fill:#e0e0e0"></path><path d="M93.2,211.14h22.85a.77.77,0,0,0,.76-.7h0a.63.63,0,0,0-.63-.7H93.32a.78.78,0,0,0-.76.7h0A.63.63,0,0,0,93.2,211.14Z" style="fill:#e0e0e0"></path><path d="M96.52,215.79h15.4a.79.79,0,0,0,.76-.7h0a.64.64,0,0,0-.64-.7H96.65a.77.77,0,0,0-.76.7h0A.63.63,0,0,0,96.52,215.79Z" style="fill:#e0e0e0"></path><polygon points="79.97 237.75 123.11 237.75 124.56 221.19 81.42 221.19 79.97 237.75" style="fill:#e0e0e0;opacity:0.5"></polygon><polygon points="201 185.38 277.38 185.38 286.16 85.08 209.77 85.08 201 185.38" style="fill:#fafafa"></polygon><path d="M228.56,98h38.5a1,1,0,0,0,1-.9h0a.81.81,0,0,0-.82-.9h-38.5a1,1,0,0,0-1,.9h0A.81.81,0,0,0,228.56,98Z" style="fill:#e6e6e6"></path><path d="M215.62,147.08h47.14a1,1,0,0,0,1-.9h0a.82.82,0,0,0-.83-.9H215.78a1,1,0,0,0-1,.9h0A.81.81,0,0,0,215.62,147.08Z" style="fill:#e6e6e6"></path><path d="M215.17,152.33H269a1,1,0,0,0,1-.91h0a.82.82,0,0,0-.83-.9H215.32a1,1,0,0,0-1,.9h0A.83.83,0,0,0,215.17,152.33Z" style="fill:#e6e6e6"></path><path d="M214.71,157.57h53.83a1,1,0,0,0,1-.9h0a.82.82,0,0,0-.82-.91H214.86a1,1,0,0,0-1,.91h0A.82.82,0,0,0,214.71,157.57Z" style="fill:#e6e6e6"></path><path d="M214.25,162.81h53.83a1,1,0,0,0,1-.9h0a.81.81,0,0,0-.82-.9H214.41a1,1,0,0,0-1,.9h0A.82.82,0,0,0,214.25,162.81Z" style="fill:#e6e6e6"></path><path d="M213.79,168.05h47.14a1,1,0,0,0,1-.9h0a.81.81,0,0,0-.82-.9H214a1,1,0,0,0-1,.9h0A.8.8,0,0,0,213.79,168.05Z" style="fill:#e6e6e6"></path><path d="M213.33,173.3h53.83a1,1,0,0,0,1-.91h0a.8.8,0,0,0-.82-.9H213.49a1,1,0,0,0-1,.9h0A.81.81,0,0,0,213.33,173.3Z" style="fill:#e6e6e6"></path><path d="M212.87,178.54H266.7a1,1,0,0,0,1-.9h0a.81.81,0,0,0-.82-.91H213a1,1,0,0,0-1,.91h0A.81.81,0,0,0,212.87,178.54Z" style="fill:#e6e6e6"></path><path d="M232.55,104H262a1,1,0,0,0,1-.9h0a.8.8,0,0,0-.82-.9H232.71a1,1,0,0,0-1,.9h0A.8.8,0,0,0,232.55,104Z" style="fill:#e6e6e6"></path><path d="M236.84,110h19.85a1,1,0,0,0,1-.9h0a.82.82,0,0,0-.83-.9H237a1,1,0,0,0-1,.9h0A.82.82,0,0,0,236.84,110Z" style="fill:#e6e6e6"></path><polygon points="215.49 138.31 271.13 138.31 272.99 116.96 217.36 116.96 215.49 138.31" style="fill:#f0f0f0;opacity:0.5"></polygon><path d="M422.86,261.11c-.26,3-9.24,4.71-20,3.77s-19.35-4.17-19.08-7.19l1.15-13.21L424,247.9Z" style="fill:#ebebeb"></path><path d="M384.57,248.17c1.49,2.74,9.42,5.41,19.16,6.27s18-.4,20-2.84l.32-3.7-39.13-3.42Z" style="fill:#e0e0e0;opacity:0.6000000000000001"></path><path d="M403.63,253.1l-31.47-12.79a.74.74,0,0,1,.07-1.4l33.44-9.59a.72.72,0,0,1,.52,0l31.27,15.26a.74.74,0,0,1-.17,1.39l-33.22,7.13A.74.74,0,0,1,403.63,253.1Z" style="fill:#ebebeb"></path><rect x="98.12" y="312.7" width="42.25" height="6.5" style="fill:#f0f0f0"></rect><path d="M99.52,316.45H139a3.27,3.27,0,0,1,3.27,3.27v63.73h-46V319.72a3.26,3.26,0,0,1,3.27-3.27Z" style="fill:#e6e6e6"></path><rect x="96.25" y="304.7" width="46" height="10" rx="3.61" style="fill:#e6e6e6"></rect><polygon points="148.2 383.45 126.7 383.45 126.7 380.45 148.2 378.45 148.2 383.45" style="fill:#f5f5f5"></polygon></g><g id="freepik--Shadow--inject-44"><ellipse id="freepik--path--inject-44" cx="250" cy="415.69" rx="193.89" ry="11.32" style="fill:#f5f5f5"></ellipse></g><g id="freepik--Thesis--inject-44"><polygon points="194.11 133.61 183.53 254.51 96.45 246.89 103.54 255.34 190.62 262.96 201.2 142.06 194.11 133.61" style="fill:#263238"></polygon><polygon points="194.11 133.61 183.53 254.51 96.45 246.89 103.54 255.34 190.62 262.96 201.2 142.06 194.11 133.61" style="fill:#fff;opacity:0.5"></polygon><rect x="101.57" y="129.57" width="87.41" height="121.37" transform="translate(17.13 -11.94) rotate(5)" style="fill:#2291F1"></rect><rect x="101.57" y="129.57" width="87.41" height="121.37" transform="translate(17.13 -11.94) rotate(5)" style="fill:#fff;opacity:0.6000000000000001"></rect><path d="M196.49,151.17h0a.74.74,0,0,1-.67-.81l.28-3.19a.74.74,0,0,1,.8-.68h0a.74.74,0,0,1,.67.8l-.28,3.2A.74.74,0,0,1,196.49,151.17Z" style="fill:#263238"></path><path d="M191.22,211.37h0a.73.73,0,0,1-.67-.8l4.83-55.22a.73.73,0,0,1,.8-.67h0a.74.74,0,0,1,.68.8L192,210.7A.73.73,0,0,1,191.22,211.37Z" style="fill:#263238"></path><path d="M188.66,240.71h0a.76.76,0,0,1-.68-.81L190,216.53a.73.73,0,0,1,.8-.67h0a.74.74,0,0,1,.67.8l-2,23.37A.75.75,0,0,1,188.66,240.71Z" style="fill:#263238"></path><path d="M187.81,250.42h0a.74.74,0,0,1-.68-.8l.38-4.3a.74.74,0,0,1,.8-.68h0a.74.74,0,0,1,.67.8l-.37,4.31A.74.74,0,0,1,187.81,250.42Z" style="fill:#263238"></path><path d="M127.53,254.27l-15.25-1.33a.75.75,0,0,1-.67-.81h0a.74.74,0,0,1,.8-.67l15.25,1.33a.76.76,0,0,1,.68.81h0A.75.75,0,0,1,127.53,254.27Z" style="fill:#263238"></path><path d="M164.92,257.54l-30.74-2.69a.74.74,0,0,1-.68-.8h0a.74.74,0,0,1,.81-.67l30.74,2.69a.74.74,0,0,1,.68.8h0A.74.74,0,0,1,164.92,257.54Z" style="fill:#263238"></path><path d="M173.53,258.29l-4.18-.36a.74.74,0,0,1-.67-.8h0a.74.74,0,0,1,.8-.68l4.18.37a.74.74,0,0,1,.68.8h0A.74.74,0,0,1,173.53,258.29Z" style="fill:#263238"></path><g style="opacity:0.4"><path d="M196.49,151.17h0a.74.74,0,0,1-.67-.81l.28-3.19a.74.74,0,0,1,.8-.68h0a.74.74,0,0,1,.67.8l-.28,3.2A.74.74,0,0,1,196.49,151.17Z" style="fill:#fff"></path><path d="M191.22,211.37h0a.73.73,0,0,1-.67-.8l4.83-55.22a.73.73,0,0,1,.8-.67h0a.74.74,0,0,1,.68.8L192,210.7A.73.73,0,0,1,191.22,211.37Z" style="fill:#fff"></path><path d="M188.66,240.71h0a.76.76,0,0,1-.68-.81L190,216.53a.73.73,0,0,1,.8-.67h0a.74.74,0,0,1,.67.8l-2,23.37A.75.75,0,0,1,188.66,240.71Z" style="fill:#fff"></path><path d="M187.81,250.42h0a.74.74,0,0,1-.68-.8l.38-4.3a.74.74,0,0,1,.8-.68h0a.74.74,0,0,1,.67.8l-.37,4.31A.74.74,0,0,1,187.81,250.42Z" style="fill:#fff"></path><path d="M127.53,254.27l-15.25-1.33a.75.75,0,0,1-.67-.81h0a.74.74,0,0,1,.8-.67l15.25,1.33a.76.76,0,0,1,.68.81h0A.75.75,0,0,1,127.53,254.27Z" style="fill:#fff"></path><path d="M164.92,257.54l-30.74-2.69a.74.74,0,0,1-.68-.8h0a.74.74,0,0,1,.81-.67l30.74,2.69a.74.74,0,0,1,.68.8h0A.74.74,0,0,1,164.92,257.54Z" style="fill:#fff"></path><path d="M173.53,258.29l-4.18-.36a.74.74,0,0,1-.67-.8h0a.74.74,0,0,1,.8-.68l4.18.37a.74.74,0,0,1,.68.8h0A.74.74,0,0,1,173.53,258.29Z" style="fill:#fff"></path></g><path d="M111.41,176.32c-3.09.45-12.41-1.09-12.41-1.09l-2.09,24s9.44.1,12.4,1.08a17.94,17.94,0,0,1,2.61,1.58l2.33-26.66A17.6,17.6,0,0,1,111.41,176.32Z" style="fill:#263238"></path><path d="M110.16,200.72c.81.48,1.76,1.15,1.76,1.15l2.33-26.66s-1,.5-1.93.83Z"></path><path d="M112.17,203.24h0a1.3,1.3,0,0,1-1.18-1.4l2.34-26.75a1.29,1.29,0,0,1,1.41-1.18h0a1.28,1.28,0,0,1,1.17,1.4l-2.34,26.75A1.29,1.29,0,0,1,112.17,203.24Z" style="fill:#263238"></path><path d="M110.77,182.09l-1.09,12.4-8.49-3.6a.87.87,0,0,0-.9.17,5.22,5.22,0,0,1-3.92,1.3,3.4,3.4,0,0,1-2.5-1.24c-1.13-1.44-.94-3.79-.61-5.9a3.89,3.89,0,0,1,4.25-3.31,5.22,5.22,0,0,1,3.41,1.92.86.86,0,0,0,.86.34Zm-2.06,10.78.82-9.35-7.5,1.73a2,2,0,0,1-2-.72A4.12,4.12,0,0,0,97.36,183a2.78,2.78,0,0,0-3,2.39c-.28,1.76-.49,3.92.38,5a2.35,2.35,0,0,0,1.72.81,4.09,4.09,0,0,0,3.1-1,1.94,1.94,0,0,1,2.06-.37Z" style="fill:#263238"></path><g style="opacity:0.5"><path d="M110.77,182.09l-1.09,12.4-8.49-3.6a.87.87,0,0,0-.9.17,5.22,5.22,0,0,1-3.92,1.3,3.4,3.4,0,0,1-2.5-1.24c-1.13-1.44-.94-3.79-.61-5.9a3.89,3.89,0,0,1,4.25-3.31,5.22,5.22,0,0,1,3.41,1.92.86.86,0,0,0,.86.34Zm-2.06,10.78.82-9.35-7.5,1.73a2,2,0,0,1-2-.72A4.12,4.12,0,0,0,97.36,183a2.78,2.78,0,0,0-3,2.39c-.28,1.76-.49,3.92.38,5a2.35,2.35,0,0,0,1.72.81,4.09,4.09,0,0,0,3.1-1,1.94,1.94,0,0,1,2.06-.37Z" style="fill:#fff"></path></g><path d="M135.08,142.57l-2-.17.1-1.17,5.4.47-.1,1.17-2-.18-.44,5-1.44-.12Z" style="fill:#263238"></path><path d="M145.06,142.26l-.54,6.2-1.44-.12.22-2.54-2.81-.25-.22,2.54-1.44-.12.54-6.2,1.44.12-.22,2.45,2.82.24.21-2.44Z" style="fill:#263238"></path><path d="M150.89,147.86l-.1,1.15-4.8-.42.54-6.2,4.68.41-.1,1.15-3.26-.28-.11,1.34,2.87.26-.09,1.11-2.88-.25-.13,1.43Z" style="fill:#263238"></path><path d="M152.55,149.07a3.52,3.52,0,0,1-1.06-.61l.59-1a3.18,3.18,0,0,0,.9.55,3.92,3.92,0,0,0,1.08.28,1.74,1.74,0,0,0,.92-.11.54.54,0,0,0,.34-.45.51.51,0,0,0-.14-.39,1.45,1.45,0,0,0-.42-.27c-.18-.08-.42-.16-.72-.26a9.28,9.28,0,0,1-1.13-.44,2,2,0,0,1-.73-.6,1.49,1.49,0,0,1-.23-1,1.72,1.72,0,0,1,.37-.95,2.1,2.1,0,0,1,1-.62,3.7,3.7,0,0,1,1.46-.13,5,5,0,0,1,1.15.25,3.27,3.27,0,0,1,1,.49l-.54,1a3.5,3.5,0,0,0-1.67-.64,1.71,1.71,0,0,0-.91.12.61.61,0,0,0-.33.49.5.5,0,0,0,.29.5,5.2,5.2,0,0,0,1,.4,11.55,11.55,0,0,1,1.13.43,2,2,0,0,1,.73.6,1.43,1.43,0,0,1,.23,1,1.66,1.66,0,0,1-.38,1,2.05,2.05,0,0,1-1,.62,3.77,3.77,0,0,1-1.47.13A5.11,5.11,0,0,1,152.55,149.07Z" style="fill:#263238"></path><path d="M158.12,143.41l1.43.12-.54,6.2-1.43-.12Z" style="fill:#263238"></path><path d="M161.11,149.82a3.4,3.4,0,0,1-1.06-.61l.58-1a3.24,3.24,0,0,0,.91.55,3.43,3.43,0,0,0,1.08.27,1.67,1.67,0,0,0,.92-.1.54.54,0,0,0,.33-.46.44.44,0,0,0-.14-.38,1.17,1.17,0,0,0-.42-.27,7.24,7.24,0,0,0-.71-.26,8.67,8.67,0,0,1-1.13-.44,1.8,1.8,0,0,1-.73-.61,1.45,1.45,0,0,1-.24-1,1.73,1.73,0,0,1,.38-.95,2,2,0,0,1,.94-.62,3.74,3.74,0,0,1,1.46-.13,5.46,5.46,0,0,1,1.15.24,3.62,3.62,0,0,1,1,.5l-.54,1a3.43,3.43,0,0,0-1.68-.64,1.66,1.66,0,0,0-.9.12.58.58,0,0,0-.34.49.5.5,0,0,0,.29.5,6,6,0,0,0,1,.39,11.28,11.28,0,0,1,1.13.44,1.93,1.93,0,0,1,.73.6,1.48,1.48,0,0,1,.24,1,1.73,1.73,0,0,1-.38,1,2,2,0,0,1-1,.61,3.61,3.61,0,0,1-1.47.13A5,5,0,0,1,161.11,149.82Z" style="fill:#263238"></path><path d="M171.7,159.55l-47.11-4.12a1.11,1.11,0,0,1-1-1.2h0a1.12,1.12,0,0,1,1.21-1l47.1,4.12a1.1,1.1,0,0,1,1,1.2h0A1.1,1.1,0,0,1,171.7,159.55Z" style="fill:#263238"></path><path d="M164.9,165.87l-34.71-3a1.11,1.11,0,0,1-1-1.2h0a1.12,1.12,0,0,1,1.21-1l34.7,3a1.1,1.1,0,0,1,1,1.2h0A1.11,1.11,0,0,1,164.9,165.87Z" style="fill:#263238"></path><path d="M172.6,231.18a.73.73,0,0,1-.8.67l-59.86-5.23a.74.74,0,0,1-.67-.81h0a.73.73,0,0,1,.8-.67l59.86,5.24a.73.73,0,0,1,.67.8Z" style="fill:#263238"></path><path d="M165.8,237.5a.73.73,0,0,1-.8.67L117.54,234a.74.74,0,0,1-.67-.8h0a.74.74,0,0,1,.8-.68l47.46,4.15a.74.74,0,0,1,.67.81Z" style="fill:#263238"></path><circle cx="144.77" cy="196.06" r="13.39" transform="translate(-92.15 138.93) rotate(-40)" style="fill:#2291F1"></circle><path d="M150.58,200.47c-.08.95-2.9,1.48-6.3,1.18s-6.08-1.31-6-2.26l.37-4.15,12.3,1.07Z" style="fill:#263238"></path><path d="M138.55,196.4c.47.86,3,1.7,6,2s5.66-.13,6.28-.9l.1-1.16-12.3-1.07Z" style="opacity:0.6000000000000001"></path><path d="M144.54,198l-9.9-4a.23.23,0,0,1,0-.44l10.51-3a.18.18,0,0,1,.16,0l9.83,4.79a.24.24,0,0,1,0,.44L144.68,198A.32.32,0,0,1,144.54,198Z" style="fill:#263238"></path></g><g id="freepik--Device--inject-44"><path d="M316.76,290.51l-14-31.09H269.94l5,29.09a2.63,2.63,0,0,1-2.14,3l-.42,0H258a1.39,1.39,0,0,0-1.39,1.39h0v1.54a1.39,1.39,0,0,0,1.39,1.39h57.73a1.51,1.51,0,0,0,1.51-1.51v-1.6A5.49,5.49,0,0,0,316.76,290.51Zm-15.18-3.84H285.83a2.1,2.1,0,0,1-2.07-1.75l-2.38-13.73a2.1,2.1,0,0,1,1.72-2.43l.36,0h11.91a2.1,2.1,0,0,1,1.92,1.23l6.21,13.73a2.13,2.13,0,0,1-1.92,3Z" style="fill:#263238"></path><path d="M316.76,290.51l-14-31.09H269.94l5,29.09a2.63,2.63,0,0,1-2.14,3l-.42,0H258a1.39,1.39,0,0,0-1.39,1.39h0v1.54a1.39,1.39,0,0,0,1.39,1.39h57.73a1.51,1.51,0,0,0,1.51-1.51v-1.6A5.49,5.49,0,0,0,316.76,290.51Zm-15.18-3.84H285.83a2.1,2.1,0,0,1-2.07-1.75l-2.38-13.73a2.1,2.1,0,0,1,1.72-2.43l.36,0h11.91a2.1,2.1,0,0,1,1.92,1.23l6.21,13.73a2.13,2.13,0,0,1-1.92,3Z" style="fill:#fff;opacity:0.5"></path><path d="M301.58,286.67H285.83a2.1,2.1,0,0,1-2.07-1.75l-2.38-13.73a2.1,2.1,0,0,1,1.72-2.43l.36,0h11.91a2.1,2.1,0,0,1,1.92,1.23l6.21,13.73a2.13,2.13,0,0,1-1.92,3Z" style="fill:#fff;isolation:isolate;opacity:0.2"></path><path d="M285.31,268.7h-1.85a2.1,2.1,0,0,0-2.11,2.1,2.19,2.19,0,0,0,0,.36l2.38,13.73a2.08,2.08,0,0,0,2.07,1.74h1.86a2.08,2.08,0,0,1-2.07-1.74l-2.38-13.73a2.09,2.09,0,0,1,1.72-2.43A2.07,2.07,0,0,1,285.31,268.7Z" style="fill:#263238"></path><path d="M318.62,290.51l-14-31.07h-1.85l14,31.07a5.58,5.58,0,0,1,.5,2.31v1.61a1.52,1.52,0,0,1-1.51,1.51h1.86a1.52,1.52,0,0,0,1.51-1.51v-1.61A5.58,5.58,0,0,0,318.62,290.51Z" style="fill:#263238"></path><polygon points="302.72 259.42 269.93 259.42 271.22 266.84 306.08 266.84 302.72 259.42" style="isolation:isolate;opacity:0.2"></polygon><path d="M349.76,262.68H209.87a4.62,4.62,0,0,1-4.69-4.52,4.16,4.16,0,0,1,0-.61l8.84-101.09a5.68,5.68,0,0,1,5.56-5.12H359.5a4.59,4.59,0,0,1,4.69,4.52,4,4,0,0,1,0,.6l-8.85,101.1A5.69,5.69,0,0,1,349.76,262.68Z" style="fill:#263238"></path><path d="M206.16,246.63l-1,10.93a4.59,4.59,0,0,0,4.06,5.09,3,3,0,0,0,.6,0h139.9a5.68,5.68,0,0,0,5.56-5.12l1-10.93Z" style="fill:#2291F1"></path><path d="M206.16,246.63l-1,10.93a4.59,4.59,0,0,0,4.06,5.09,3,3,0,0,0,.6,0h139.9a5.68,5.68,0,0,0,5.56-5.12l1-10.93Z" style="fill:#fff;isolation:isolate;opacity:0.7000000000000001"></path><path d="M351.34,243.54H211.63a2.49,2.49,0,0,1-2.54-2.45,1.69,1.69,0,0,1,0-.32l7.31-83.55a3.08,3.08,0,0,1,3-2.77H359.14a2.49,2.49,0,0,1,2.54,2.45c0,.1,0,.21,0,.32l-7.31,83.55A3.09,3.09,0,0,1,351.34,243.54Z" style="fill:#2291F1"></path><path d="M351.34,243.54H211.63a2.49,2.49,0,0,1-2.54-2.45,1.69,1.69,0,0,1,0-.32l7.31-83.55a3.08,3.08,0,0,1,3-2.77H359.14a2.49,2.49,0,0,1,2.54,2.45c0,.1,0,.21,0,.32l-7.31,83.55A3.09,3.09,0,0,1,351.34,243.54Z" style="fill:#2291F1;isolation:isolate;opacity:0.8"></path><path d="M362.6,151.36h-3.1a4.59,4.59,0,0,1,4.69,4.52,4,4,0,0,1,0,.6l-8.85,101.08a5.68,5.68,0,0,1-5.56,5.12h3.1a5.67,5.67,0,0,0,5.55-5.12l8.85-101.09a4.6,4.6,0,0,0-4.07-5.08Z" style="fill:#2291F1"></path><path d="M362.6,151.36h-3.1a4.59,4.59,0,0,1,4.69,4.52,4,4,0,0,1,0,.6l-8.85,101.08a5.68,5.68,0,0,1-5.56,5.12h3.1a5.67,5.67,0,0,0,5.55-5.12l8.85-101.09a4.6,4.6,0,0,0-4.07-5.08Z" style="fill:#fff;isolation:isolate;opacity:0.2"></path><polygon points="246.22 242.92 310.32 242.92 317.68 158.77 253.59 158.77 246.22 242.92" style="fill:#2291F1"></polygon><polygon points="246.22 242.92 310.32 242.92 317.68 158.77 253.59 158.77 246.22 242.92" style="fill:#fff;opacity:0.7000000000000001"></polygon><path d="M269.36,169.62h32.29a.85.85,0,0,0,.83-.76h0a.69.69,0,0,0-.69-.75h-32.3a.85.85,0,0,0-.83.75h0A.69.69,0,0,0,269.36,169.62Z" style="fill:#263238"></path><path d="M258.5,210.79h39.55a.85.85,0,0,0,.83-.76h0a.69.69,0,0,0-.7-.75H258.63a.83.83,0,0,0-.82.75h0A.68.68,0,0,0,258.5,210.79Z" style="fill:#263238"></path><path d="M258.11,215.19h45.17a.83.83,0,0,0,.82-.76h0a.68.68,0,0,0-.69-.75H258.25a.85.85,0,0,0-.83.75h0A.69.69,0,0,0,258.11,215.19Z" style="fill:#263238"></path><path d="M257.73,219.59H302.9a.85.85,0,0,0,.82-.76h0a.68.68,0,0,0-.69-.76H257.86a.84.84,0,0,0-.82.76h0A.68.68,0,0,0,257.73,219.59Z" style="fill:#263238"></path><path d="M257.34,224h45.17a.83.83,0,0,0,.82-.76h0a.68.68,0,0,0-.69-.76H257.48a.85.85,0,0,0-.83.76h0A.69.69,0,0,0,257.34,224Z" style="fill:#263238"></path><path d="M257,228.39h39.55a.85.85,0,0,0,.83-.76h0a.69.69,0,0,0-.69-.76H257.09a.84.84,0,0,0-.82.76h0A.68.68,0,0,0,257,228.39Z" style="fill:#263238"></path><path d="M256.57,232.78h45.17a.84.84,0,0,0,.83-.75h0a.69.69,0,0,0-.7-.76H256.71a.85.85,0,0,0-.83.76h0A.68.68,0,0,0,256.57,232.78Z" style="fill:#263238"></path><path d="M256.19,237.18h45.17a.84.84,0,0,0,.82-.75h0a.68.68,0,0,0-.69-.76H256.32a.84.84,0,0,0-.82.76h0A.68.68,0,0,0,256.19,237.18Z" style="fill:#263238"></path><path d="M272.7,174.65h24.73a.83.83,0,0,0,.82-.76h0a.68.68,0,0,0-.69-.76H272.83a.85.85,0,0,0-.82.76h0A.68.68,0,0,0,272.7,174.65Z" style="fill:#263238"></path><path d="M276.3,179.67H293a.85.85,0,0,0,.83-.75h0a.69.69,0,0,0-.7-.76H276.43a.83.83,0,0,0-.82.76h0A.68.68,0,0,0,276.3,179.67Z" style="fill:#263238"></path><g style="opacity:0.4"><path d="M269.36,169.62h32.29a.85.85,0,0,0,.83-.76h0a.69.69,0,0,0-.69-.75h-32.3a.85.85,0,0,0-.83.75h0A.69.69,0,0,0,269.36,169.62Z" style="fill:#fff"></path><path d="M258.5,210.79h39.55a.85.85,0,0,0,.83-.76h0a.69.69,0,0,0-.7-.75H258.63a.83.83,0,0,0-.82.75h0A.68.68,0,0,0,258.5,210.79Z" style="fill:#fff"></path><path d="M258.11,215.19h45.17a.83.83,0,0,0,.82-.76h0a.68.68,0,0,0-.69-.75H258.25a.85.85,0,0,0-.83.75h0A.69.69,0,0,0,258.11,215.19Z" style="fill:#fff"></path><path d="M257.73,219.59H302.9a.85.85,0,0,0,.82-.76h0a.68.68,0,0,0-.69-.76H257.86a.84.84,0,0,0-.82.76h0A.68.68,0,0,0,257.73,219.59Z" style="fill:#fff"></path><path d="M257.34,224h45.17a.83.83,0,0,0,.82-.76h0a.68.68,0,0,0-.69-.76H257.48a.85.85,0,0,0-.83.76h0A.69.69,0,0,0,257.34,224Z" style="fill:#fff"></path><path d="M257,228.39h39.55a.85.85,0,0,0,.83-.76h0a.69.69,0,0,0-.69-.76H257.09a.84.84,0,0,0-.82.76h0A.68.68,0,0,0,257,228.39Z" style="fill:#fff"></path><path d="M256.57,232.78h45.17a.84.84,0,0,0,.83-.75h0a.69.69,0,0,0-.7-.76H256.71a.85.85,0,0,0-.83.76h0A.68.68,0,0,0,256.57,232.78Z" style="fill:#fff"></path><path d="M256.19,237.18h45.17a.84.84,0,0,0,.82-.75h0a.68.68,0,0,0-.69-.76H256.32a.84.84,0,0,0-.82.76h0A.68.68,0,0,0,256.19,237.18Z" style="fill:#fff"></path><path d="M272.7,174.65h24.73a.83.83,0,0,0,.82-.76h0a.68.68,0,0,0-.69-.76H272.83a.85.85,0,0,0-.82.76h0A.68.68,0,0,0,272.7,174.65Z" style="fill:#fff"></path><path d="M276.3,179.67H293a.85.85,0,0,0,.83-.75h0a.69.69,0,0,0-.7-.76H276.43a.83.83,0,0,0-.82.76h0A.68.68,0,0,0,276.3,179.67Z" style="fill:#fff"></path></g><polygon points="258.39 203.43 305.07 203.43 306.63 185.52 259.95 185.52 258.39 203.43" style="fill:#fff;opacity:0.5"></polygon></g><g id="freepik--graduation-cap--inject-44"><rect x="207.18" y="257.16" width="40.94" height="38.61" transform="translate(455.3 552.93) rotate(180)" style="fill:#263238"></rect><rect x="167.25" y="257.16" width="40.94" height="38.61" transform="translate(375.43 552.93) rotate(180)" style="fill:#263238"></rect><rect x="206.78" y="255.73" width="41.34" height="5.36" transform="translate(454.89 516.83) rotate(180)" style="fill:#263238"></rect><rect x="206.78" y="251.8" width="73.93" height="6.23" transform="translate(487.49 509.84) rotate(180)" style="fill:#263238"></rect><rect x="167.25" y="257.16" width="40.94" height="38.61" transform="translate(375.43 552.93) rotate(180)" style="opacity:0.2"></rect><rect x="206.78" y="255.73" width="41.34" height="5.36" transform="translate(454.89 516.83) rotate(180)" style="opacity:0.2"></rect><rect x="206.78" y="251.8" width="73.93" height="6.23" transform="translate(487.49 509.84) rotate(180)" style="opacity:0.2"></rect><rect x="134.66" y="251.8" width="73.93" height="6.23" transform="translate(343.24 509.84) rotate(180)" style="fill:#263238"></rect><path d="M134.66,317.6h0a1,1,0,0,0,1-1V256a3.23,3.23,0,0,1,3.23-3.24h68.7a1,1,0,0,0,1-1h0a1,1,0,0,0-1-1h-68.7a5.24,5.24,0,0,0-5.23,5.24V316.6A1,1,0,0,0,134.66,317.6Z" style="fill:#2291F1"></path><path d="M134.44,320.2c3.68,0,6.66,4.8,6.66,10.72v7.62h-3.3c-.36,0-2.38-.4-2.38-7.69,0,0-1.12,7.67.74,7.69h-2.81s-1.68-.32-1.68-4.38V328s-2.69,10.5,0,10.5h-3.9v-7.62C127.77,325,130.76,320.2,134.44,320.2Z" style="fill:#2291F1"></path><path d="M132.2,318.6h4.48a1,1,0,0,0,1-1h0a1,1,0,0,0-1-1H132.2a1,1,0,0,0-1,1h0A1,1,0,0,0,132.2,318.6Z" style="fill:#2291F1"></path><path d="M132.2,320.6h4.48a1,1,0,0,0,1-1h0a1,1,0,0,0-1-1H132.2a1,1,0,0,0-1,1h0A1,1,0,0,0,132.2,320.6Z" style="fill:#2291F1"></path></g><g id="freepik--Books--inject-44"><path d="M344.5,374.88H162.28v38H344.56A149.17,149.17,0,0,1,344.5,374.88Z" style="fill:#2291F1"></path><path d="M344.5,374.88H162.28v38H344.56A149.17,149.17,0,0,1,344.5,374.88Z" style="fill:#fff;opacity:0.7000000000000001"></path><path d="M195.48,414.88H138.21l-.58-.59a29.2,29.2,0,0,1,0-41.31l.58-.58h57.27l-3.41,3.41a25.22,25.22,0,0,0,0,35.65Z" style="fill:#2291F1"></path><g style="opacity:0.30000000000000004"><path d="M195.48,414.88H138.21l-.58-.59a29.2,29.2,0,0,1,0-41.31l.58-.58h57.27l-3.41,3.41a25.22,25.22,0,0,0,0,35.65Z"></path></g><path d="M346.37,414.88H191.69l-.17-.17a30.06,30.06,0,0,1-9-20A29.08,29.08,0,0,1,191.1,373l.59-.58H346.37a2,2,0,0,1,2,2h0a2,2,0,0,1-2,2h-153a25.23,25.23,0,0,0,0,34.48h153a2,2,0,0,1,2,2h0A2,2,0,0,1,346.37,414.88Z" style="fill:#2291F1"></path><path d="M330.2,389h-8.75a1.5,1.5,0,0,1-1.5-1.5h0a1.5,1.5,0,0,1,1.5-1.5h8.75a1.5,1.5,0,0,1,1.5,1.5h0A1.5,1.5,0,0,1,330.2,389Z" style="fill:#fff"></path><path d="M310,389H228.7a1.5,1.5,0,0,1-1.5-1.5h0a1.5,1.5,0,0,1,1.5-1.5H310a1.5,1.5,0,0,1,1.5,1.5h0A1.5,1.5,0,0,1,310,389Z" style="fill:#fff"></path><path d="M217.7,389h-18a1.5,1.5,0,0,1-1.5-1.5h0a1.5,1.5,0,0,1,1.5-1.5h18a1.5,1.5,0,0,1,1.5,1.5h0A1.5,1.5,0,0,1,217.7,389Z" style="fill:#fff"></path><path d="M330.2,401.71h-77a1.5,1.5,0,0,1-1.5-1.5h0a1.5,1.5,0,0,1,1.5-1.5h77a1.5,1.5,0,0,1,1.5,1.5h0A1.5,1.5,0,0,1,330.2,401.71Z" style="fill:#fff"></path><path d="M242,401.71H199.7a1.5,1.5,0,0,1-1.5-1.5h0a1.5,1.5,0,0,1,1.5-1.5H242a1.5,1.5,0,0,1,1.5,1.5h0A1.5,1.5,0,0,1,242,401.71Z" style="fill:#fff"></path><path d="M339.67,298.17h-164v34.2H339.73A134.07,134.07,0,0,1,339.67,298.17Z" style="fill:#2291F1"></path><path d="M339.67,298.17h-164v34.2H339.73A134.07,134.07,0,0,1,339.67,298.17Z" style="fill:#fff;opacity:0.8"></path><path d="M205.55,334.17H154l-.53-.53a26.28,26.28,0,0,1,0-37.17l.53-.53h51.54L202.48,299a22.71,22.71,0,0,0,0,32.09Z" style="fill:#2291F1"></path><g style="opacity:0.2"><path d="M205.55,334.17H154l-.53-.53a26.28,26.28,0,0,1,0-37.17l.53-.53h51.54L202.48,299a22.71,22.71,0,0,0,0,32.09Z" style="fill:#fff"></path></g><path d="M341.35,334.17H202.14L202,334a27,27,0,0,1-8.06-18,26.1,26.1,0,0,1,7.68-19.53l.53-.53H341.35a1.8,1.8,0,0,1,1.8,1.8h0a1.8,1.8,0,0,1-1.8,1.8H203.64a22.7,22.7,0,0,0,0,31H341.35a1.8,1.8,0,0,1,1.8,1.8h0A1.8,1.8,0,0,1,341.35,334.17Z" style="fill:#2291F1"></path><g style="opacity:0.4"><path d="M341.35,334.17H202.14L202,334a27,27,0,0,1-8.06-18,26.1,26.1,0,0,1,7.68-19.53l.53-.53H341.35a1.8,1.8,0,0,1,1.8,1.8h0a1.8,1.8,0,0,1-1.8,1.8H203.64a22.7,22.7,0,0,0,0,31H341.35a1.8,1.8,0,0,1,1.8,1.8h0A1.8,1.8,0,0,1,341.35,334.17Z" style="fill:#fff"></path></g><path d="M326.8,310.92h-7.88a1.35,1.35,0,0,1-1.35-1.35h0a1.35,1.35,0,0,1,1.35-1.35h7.88a1.35,1.35,0,0,1,1.35,1.35h0A1.35,1.35,0,0,1,326.8,310.92Z" style="fill:#fff"></path><path d="M308.57,310.92H235.45a1.34,1.34,0,0,1-1.35-1.35h0a1.34,1.34,0,0,1,1.35-1.35h73.12a1.34,1.34,0,0,1,1.35,1.35h0A1.34,1.34,0,0,1,308.57,310.92Z" style="fill:#fff"></path><path d="M225.55,310.92h-16.2a1.34,1.34,0,0,1-1.35-1.35h0a1.34,1.34,0,0,1,1.35-1.35h16.2a1.34,1.34,0,0,1,1.35,1.35h0A1.34,1.34,0,0,1,225.55,310.92Z" style="fill:#fff"></path><path d="M326.8,322.32H257.5a1.34,1.34,0,0,1-1.35-1.35h0a1.34,1.34,0,0,1,1.35-1.35h69.3a1.35,1.35,0,0,1,1.35,1.35h0A1.35,1.35,0,0,1,326.8,322.32Z" style="fill:#fff"></path><path d="M247.37,322.32h-38A1.34,1.34,0,0,1,208,321h0a1.34,1.34,0,0,1,1.35-1.35h38a1.34,1.34,0,0,1,1.35,1.35h0A1.34,1.34,0,0,1,247.37,322.32Z" style="fill:#fff"></path><path d="M345.44,336.4h-164v34.2H345.5A134.07,134.07,0,0,1,345.44,336.4Z" style="fill:#2291F1"></path><path d="M345.44,336.4h-164v34.2H345.5A134.07,134.07,0,0,1,345.44,336.4Z" style="fill:#fff;opacity:0.7000000000000001"></path><path d="M211.33,372.4H159.78l-.52-.53a26.28,26.28,0,0,1,0-37.17l.52-.53h51.55l-3.07,3.07a22.68,22.68,0,0,0,0,32.09Z" style="fill:#2291F1"></path><path d="M347.13,372.4H207.91l-.15-.15a27,27,0,0,1-8.06-18,26.16,26.16,0,0,1,7.68-19.53l.53-.53H347.13a1.81,1.81,0,0,1,1.8,1.8h0a1.81,1.81,0,0,1-1.8,1.8H209.42a22.67,22.67,0,0,0,0,31H347.13a1.8,1.8,0,0,1,1.8,1.8h0A1.81,1.81,0,0,1,347.13,372.4Z" style="fill:#2291F1"></path><g style="opacity:0.30000000000000004"><path d="M347.13,372.4H207.91l-.15-.15a27,27,0,0,1-8.06-18,26.16,26.16,0,0,1,7.68-19.53l.53-.53H347.13a1.81,1.81,0,0,1,1.8,1.8h0a1.81,1.81,0,0,1-1.8,1.8H209.42a22.67,22.67,0,0,0,0,31H347.13a1.8,1.8,0,0,1,1.8,1.8h0A1.81,1.81,0,0,1,347.13,372.4Z" style="fill:#fff"></path></g><path d="M215.12,357.85H223a1.35,1.35,0,0,1,1.35,1.35h0a1.36,1.36,0,0,1-1.35,1.35h-7.88a1.36,1.36,0,0,1-1.35-1.35h0A1.35,1.35,0,0,1,215.12,357.85Z" style="fill:#fff"></path><path d="M233.35,357.85h73.12a1.34,1.34,0,0,1,1.35,1.35h0a1.35,1.35,0,0,1-1.35,1.35H233.35A1.35,1.35,0,0,1,232,359.2h0A1.34,1.34,0,0,1,233.35,357.85Z" style="fill:#fff"></path><path d="M316.37,357.85h16.2a1.34,1.34,0,0,1,1.35,1.35h0a1.35,1.35,0,0,1-1.35,1.35h-16.2A1.36,1.36,0,0,1,315,359.2h0A1.35,1.35,0,0,1,316.37,357.85Z" style="fill:#fff"></path><path d="M215.12,346.45h69.3a1.34,1.34,0,0,1,1.35,1.35h0a1.35,1.35,0,0,1-1.35,1.35h-69.3a1.36,1.36,0,0,1-1.35-1.35h0A1.35,1.35,0,0,1,215.12,346.45Z" style="fill:#fff"></path><path d="M294.55,346.45h38a1.34,1.34,0,0,1,1.35,1.35h0a1.35,1.35,0,0,1-1.35,1.35h-38a1.35,1.35,0,0,1-1.35-1.35h0A1.34,1.34,0,0,1,294.55,346.45Z" style="fill:#fff"></path></g></svg>
